<?xml version="1.0" standalone="no"?>
<svg viewBox="0 0 200 200" xmlns="http://www.w3.org/2000/svg">
  <path fill="#329bd580" d="M39.3,-67.4C52.1,-60.6,64.6,-52.6,73.6,-41.1C82.6,-29.7,88.2,-14.8,88.8,0.4C89.5,15.6,85.1,31.1,76.1,42.5C67.1,54,53.3,61.3,39.9,68C26.4,74.7,13.2,80.9,0.1,80.7C-13,80.5,-26,74,-39.1,67.1C-52.2,60.2,-65.5,52.8,-72.7,41.6C-79.9,30.3,-81,15.2,-79.8,0.7C-78.5,-13.7,-74.8,-27.4,-68.6,-40.3C-62.4,-53.3,-53.6,-65.5,-41.8,-72.8C-29.9,-80.2,-15,-82.6,-0.9,-81.1C13.2,-79.6,26.4,-74.1,39.3,-67.4Z" transform="translate(100 100)" />
</svg>
